<svg width="67" height="67" viewBox="0 0 67 67" fill="none" xmlns="http://www.w3.org/2000/svg">
<path d="M43.75 8.33333H33.3333C33.3333 3.73698 29.5964 0 25 0C20.4036 0 16.6667 3.73698 16.6667 8.33333H6.25C2.79948 8.33333 0 11.1328 0 14.5833V60.4167C0 63.8672 2.79948 66.6667 6.25 66.6667H43.75C47.2005 66.6667 50 63.8672 50 60.4167V14.5833C50 11.1328 47.2005 8.33333 43.75 8.33333ZM12.5 55.2083C10.7682 55.2083 9.375 53.8151 9.375 52.0833C9.375 50.3516 10.7682 48.9583 12.5 48.9583C14.2318 48.9583 15.625 50.3516 15.625 52.0833C15.625 53.8151 14.2318 55.2083 12.5 55.2083ZM12.5 42.7083C10.7682 42.7083 9.375 41.3151 9.375 39.5833C9.375 37.8516 10.7682 36.4583 12.5 36.4583C14.2318 36.4583 15.625 37.8516 15.625 39.5833C15.625 41.3151 14.2318 42.7083 12.5 42.7083ZM12.5 30.2083C10.7682 30.2083 9.375 28.8151 9.375 27.0833C9.375 25.3516 10.7682 23.9583 12.5 23.9583C14.2318 23.9583 15.625 25.3516 15.625 27.0833C15.625 28.8151 14.2318 30.2083 12.5 30.2083ZM25 5.20833C26.7318 5.20833 28.125 6.60156 28.125 8.33333C28.125 10.0651 26.7318 11.4583 25 11.4583C23.2682 11.4583 21.875 10.0651 21.875 8.33333C21.875 6.60156 23.2682 5.20833 25 5.20833ZM41.6667 53.125C41.6667 53.6979 41.1979 54.1667 40.625 54.1667H21.875C21.3021 54.1667 20.8333 53.6979 20.8333 53.125V51.0417C20.8333 50.4687 21.3021 50 21.875 50H40.625C41.1979 50 41.6667 50.4687 41.6667 51.0417V53.125ZM41.6667 40.625C41.6667 41.1979 41.1979 41.6667 40.625 41.6667H21.875C21.3021 41.6667 20.8333 41.1979 20.8333 40.625V38.5417C20.8333 37.9688 21.3021 37.5 21.875 37.5H40.625C41.1979 37.5 41.6667 37.9688 41.6667 38.5417V40.625ZM41.6667 28.125C41.6667 28.6979 41.1979 29.1667 40.625 29.1667H21.875C21.3021 29.1667 20.8333 28.6979 20.8333 28.125V26.0417C20.8333 25.4687 21.3021 25 21.875 25H40.625C41.1979 25 41.6667 25.4687 41.6667 26.0417V28.125Z" fill="#083B66"/>
<circle cx="49.5" cy="17.5" r="17.5" fill="#63BC7B"/>
<path d="M46.7934 24.1642L40.2934 17.6642C39.9029 17.2737 39.9029 16.6405 40.2934 16.25L41.7075 14.8358C42.0981 14.4452 42.7313 14.4452 43.1218 14.8358L47.5005 19.2144L56.8792 9.83576C57.2697 9.44525 57.9029 9.44525 58.2934 9.83576L59.7076 11.25C60.0981 11.6405 60.0981 12.2736 59.7076 12.6642L48.2076 24.1642C47.817 24.5547 47.1839 24.5547 46.7934 24.1642Z" fill="white"/>
</svg>
