<svg width="67" height="69" viewBox="0 0 67 69" fill="none" xmlns="http://www.w3.org/2000/svg">
<path d="M43.75 9.99999H33.3333C33.3333 5.40364 29.5964 1.66666 25 1.66666C20.4036 1.66666 16.6667 5.40364 16.6667 9.99999H6.25C2.79948 9.99999 0 12.7995 0 16.25V62.0833C0 65.5338 2.79948 68.3333 6.25 68.3333H43.75C47.2005 68.3333 50 65.5338 50 62.0833V16.25C50 12.7995 47.2005 9.99999 43.75 9.99999ZM12.5 56.875C10.7682 56.875 9.375 55.4818 9.375 53.75C9.375 52.0182 10.7682 50.625 12.5 50.625C14.2318 50.625 15.625 52.0182 15.625 53.75C15.625 55.4818 14.2318 56.875 12.5 56.875ZM12.5 44.375C10.7682 44.375 9.375 42.9818 9.375 41.25C9.375 39.5182 10.7682 38.125 12.5 38.125C14.2318 38.125 15.625 39.5182 15.625 41.25C15.625 42.9818 14.2318 44.375 12.5 44.375ZM12.5 31.875C10.7682 31.875 9.375 30.4818 9.375 28.75C9.375 27.0182 10.7682 25.625 12.5 25.625C14.2318 25.625 15.625 27.0182 15.625 28.75C15.625 30.4818 14.2318 31.875 12.5 31.875ZM25 6.87499C26.7318 6.87499 28.125 8.26822 28.125 9.99999C28.125 11.7318 26.7318 13.125 25 13.125C23.2682 13.125 21.875 11.7318 21.875 9.99999C21.875 8.26822 23.2682 6.87499 25 6.87499ZM41.6667 54.7917C41.6667 55.3646 41.1979 55.8333 40.625 55.8333H21.875C21.3021 55.8333 20.8333 55.3646 20.8333 54.7917V52.7083C20.8333 52.1354 21.3021 51.6667 21.875 51.6667H40.625C41.1979 51.6667 41.6667 52.1354 41.6667 52.7083V54.7917ZM41.6667 42.2917C41.6667 42.8646 41.1979 43.3333 40.625 43.3333H21.875C21.3021 43.3333 20.8333 42.8646 20.8333 42.2917V40.2083C20.8333 39.6354 21.3021 39.1667 21.875 39.1667H40.625C41.1979 39.1667 41.6667 39.6354 41.6667 40.2083V42.2917ZM41.6667 29.7917C41.6667 30.3646 41.1979 30.8333 40.625 30.8333H21.875C21.3021 30.8333 20.8333 30.3646 20.8333 29.7917V27.7083C20.8333 27.1354 21.3021 26.6667 21.875 26.6667H40.625C41.1979 26.6667 41.6667 27.1354 41.6667 27.7083V29.7917Z" fill="#083B66"/>
<circle cx="49.5" cy="18.1667" r="17.5" fill="#FFBF00"/>
<path d="M50 7.97916C44.6484 7.97916 40.3125 12.3151 40.3125 17.6667C40.3125 23.0182 44.6484 27.3542 50 27.3542C55.3516 27.3542 59.6875 23.0182 59.6875 17.6667C59.6875 12.3151 55.3516 7.97916 50 7.97916ZM50 25.4792C45.6836 25.4792 42.1875 21.9831 42.1875 17.6667C42.1875 13.3503 45.6836 9.85416 50 9.85416C54.3164 9.85416 57.8125 13.3503 57.8125 17.6667C57.8125 21.9831 54.3164 25.4792 50 25.4792ZM52.4141 21.401L49.0977 18.9909C48.9766 18.901 48.9062 18.7604 48.9062 18.612V12.1979C48.9062 11.9401 49.1172 11.7292 49.375 11.7292H50.625C50.8828 11.7292 51.0938 11.9401 51.0938 12.1979V17.7331L53.7031 19.6315C53.9141 19.7838 53.957 20.0768 53.8047 20.2878L53.0703 21.2995C52.918 21.5065 52.625 21.5534 52.4141 21.401Z" fill="white"/>
</svg>
