<svg width="67" height="70" viewBox="0 0 67 70" fill="none" xmlns="http://www.w3.org/2000/svg">
<path d="M43.75 11.6666H33.3333C33.3333 7.07029 29.5964 3.33331 25 3.33331C20.4036 3.33331 16.6667 7.07029 16.6667 11.6666H6.25C2.79948 11.6666 0 14.4661 0 17.9166V63.75C0 67.2005 2.79948 70 6.25 70H43.75C47.2005 70 50 67.2005 50 63.75V17.9166C50 14.4661 47.2005 11.6666 43.75 11.6666ZM12.5 58.5416C10.7682 58.5416 9.375 57.1484 9.375 55.4166C9.375 53.6849 10.7682 52.2916 12.5 52.2916C14.2318 52.2916 15.625 53.6849 15.625 55.4166C15.625 57.1484 14.2318 58.5416 12.5 58.5416ZM12.5 46.0416C10.7682 46.0416 9.375 44.6484 9.375 42.9166C9.375 41.1849 10.7682 39.7916 12.5 39.7916C14.2318 39.7916 15.625 41.1849 15.625 42.9166C15.625 44.6484 14.2318 46.0416 12.5 46.0416ZM12.5 33.5416C10.7682 33.5416 9.375 32.1484 9.375 30.4166C9.375 28.6849 10.7682 27.2916 12.5 27.2916C14.2318 27.2916 15.625 28.6849 15.625 30.4166C15.625 32.1484 14.2318 33.5416 12.5 33.5416ZM25 8.54165C26.7318 8.54165 28.125 9.93488 28.125 11.6666C28.125 13.3984 26.7318 14.7916 25 14.7916C23.2682 14.7916 21.875 13.3984 21.875 11.6666C21.875 9.93488 23.2682 8.54165 25 8.54165ZM41.6667 56.4583C41.6667 57.0312 41.1979 57.5 40.625 57.5H21.875C21.3021 57.5 20.8333 57.0312 20.8333 56.4583V54.375C20.8333 53.8021 21.3021 53.3333 21.875 53.3333H40.625C41.1979 53.3333 41.6667 53.8021 41.6667 54.375V56.4583ZM41.6667 43.9583C41.6667 44.5312 41.1979 45 40.625 45H21.875C21.3021 45 20.8333 44.5312 20.8333 43.9583V41.875C20.8333 41.3021 21.3021 40.8333 21.875 40.8333H40.625C41.1979 40.8333 41.6667 41.3021 41.6667 41.875V43.9583ZM41.6667 31.4583C41.6667 32.0312 41.1979 32.5 40.625 32.5H21.875C21.3021 32.5 20.8333 32.0312 20.8333 31.4583V29.375C20.8333 28.8021 21.3021 28.3333 21.875 28.3333H40.625C41.1979 28.3333 41.6667 28.8021 41.6667 29.375V31.4583Z" fill="#083B66"/>
<circle cx="49.5" cy="17.5" r="17.5" fill="#E21E0D"/>
<path d="M52.7223 17.5L57.5552 12.6671C58.1483 12.074 58.1483 11.1124 57.5552 10.5189L56.4811 9.4448C55.888 8.85173 54.9265 8.85173 54.3329 9.4448L49.5 14.2777L44.6671 9.4448C44.074 8.85173 43.1124 8.85173 42.5189 9.4448L41.4448 10.5189C40.8517 11.112 40.8517 12.0735 41.4448 12.6671L46.2777 17.5L41.4448 22.3329C40.8517 22.926 40.8517 23.8876 41.4448 24.4811L42.5189 25.5552C43.112 26.1483 44.074 26.1483 44.6671 25.5552L49.5 20.7223L54.3329 25.5552C54.926 26.1483 55.888 26.1483 56.4811 25.5552L57.5552 24.4811C58.1483 23.888 58.1483 22.9265 57.5552 22.3329L52.7223 17.5Z" fill="white"/>
</svg>
