<svg width="40" height="40" viewBox="0 0 40 40" fill="none" xmlns="http://www.w3.org/2000/svg">
<g clip-path="url(#clip0)">
<path d="M7.33333 37.3333C7.53548 37.3333 7.72689 37.2412 7.85319 37.0833C8.13346 36.7367 14.6667 28.5387 14.6667 24.6667C14.6667 20.6165 11.3835 17.3333 7.33333 17.3333C3.2832 17.3333 0 20.6165 0 24.6667C0 28.5387 6.5332 36.7334 6.81348 37.0833C6.93978 37.2412 7.13119 37.3333 7.33333 37.3333ZM7.33333 18.6667C10.6455 18.6703 13.3298 21.3545 13.3333 24.6667C13.3333 27.2533 9.39258 32.9092 7.33333 35.5859C5.27409 32.9102 1.33333 27.2546 1.33333 24.6667C1.33691 21.3545 4.02116 18.6703 7.33333 18.6667Z" fill="#083B66"/>
<path d="M9.99984 24C9.99984 22.5274 8.80583 21.3333 7.33317 21.3333C5.86051 21.3333 4.6665 22.5274 4.6665 24C4.6665 25.4727 5.86051 26.6667 7.33317 26.6667C8.80583 26.6667 9.99984 25.4727 9.99984 24ZM5.99984 24C5.99984 23.2637 6.59684 22.6667 7.33317 22.6667C8.0695 22.6667 8.6665 23.2637 8.6665 24C8.6665 24.7363 8.0695 25.3333 7.33317 25.3333C6.59684 25.3333 5.99984 24.7363 5.99984 24Z" fill="#083B66"/>
<path d="M27.3333 24C27.5277 24 27.7119 23.9154 27.8385 23.7679C28.3333 23.194 32.6667 18.0788 32.6667 15.3333C32.6667 12.3877 30.279 10 27.3333 10C24.3877 10 22 12.3877 22 15.3333C22 18.0788 26.3333 23.194 26.8281 23.7679C26.9548 23.9154 27.139 24 27.3333 24ZM27.3333 11.3333C29.5417 11.3356 31.3311 13.125 31.3333 15.3333C31.3333 17.0228 28.7881 20.5039 27.3333 22.2926C25.8779 20.5039 23.3333 17.026 23.3333 15.3333C23.3356 13.125 25.125 11.3356 27.3333 11.3333Z" fill="#083B66"/>
<path d="M29.333 14.6667C29.333 13.5622 28.4375 12.6667 27.333 12.6667C26.2285 12.6667 25.333 13.5622 25.333 14.6667C25.333 15.7711 26.2285 16.6667 27.333 16.6667C28.4375 16.6667 29.333 15.7711 29.333 14.6667ZM26.6663 14.6667C26.6663 14.2985 26.9648 14 27.333 14C27.7012 14 27.9997 14.2985 27.9997 14.6667C27.9997 15.0348 27.7012 15.3333 27.333 15.3333C26.9648 15.3333 26.6663 15.0348 26.6663 14.6667Z" fill="#083B66"/>
<path d="M12.1431 38.6667H10.7843C10.4162 38.6667 10.1177 38.9652 10.1177 39.3333C10.1177 39.7015 10.4162 40 10.7843 40H12.1431C12.5112 40 12.8097 39.7015 12.8097 39.3333C12.8097 38.9652 12.5112 38.6667 12.1431 38.6667Z" fill="#083B66"/>
<path d="M19.2614 28.2513C19.3141 28.265 19.3688 28.2715 19.4232 28.2715C19.7292 28.2709 19.9954 28.0625 20.0693 27.766C20.1556 27.4232 20.318 27.1042 20.5446 26.8327C20.7047 26.6511 20.7536 26.3971 20.6728 26.1693C20.5921 25.9411 20.3939 25.7747 20.1553 25.7344C19.917 25.6943 19.6751 25.7865 19.5241 25.9753C19.167 26.4014 18.9111 26.9027 18.776 27.4421C18.7327 27.6136 18.7598 27.7956 18.8509 27.9473C18.9417 28.0993 19.0895 28.2087 19.2614 28.2513Z" fill="#083B66"/>
<path d="M32.432 38.6387C32.2887 38.6575 32.1445 38.667 32 38.6667H31.1608C30.7923 38.6667 30.4941 38.9652 30.4941 39.3333C30.4941 39.7015 30.7923 40 31.1608 40H32C32.2005 40 32.4011 39.987 32.5999 39.9613C32.9652 39.9141 33.223 39.5798 33.1761 39.2145C33.1289 38.8493 32.7946 38.5915 32.4294 38.6387H32.432Z" fill="#083B66"/>
<path d="M33.3609 30.8665C32.9198 30.7331 32.4611 30.6657 32.0002 30.6667H31.8254C31.4572 30.6667 31.1587 30.9652 31.1587 31.3333C31.1587 31.7015 31.4572 32 31.8254 32H32.0002C32.3296 32 32.6574 32.0485 32.9728 32.1439C33.0357 32.1634 33.1011 32.1732 33.1668 32.1732C33.4972 32.1735 33.7782 31.9316 33.827 31.6048C33.8755 31.2777 33.6773 30.9645 33.3609 30.8688V30.8665Z" fill="#083B66"/>
<path d="M35.9225 36.3659C35.5872 36.2148 35.1927 36.3639 35.0413 36.6992C34.8861 37.0439 34.6728 37.3597 34.4114 37.6328C34.2402 37.8037 34.1751 38.0537 34.2412 38.2861C34.3073 38.5189 34.4941 38.6976 34.7292 38.7529C34.9645 38.8086 35.2116 38.7324 35.3747 38.554C35.7412 38.1719 36.04 37.7295 36.2575 37.2467C36.4079 36.9111 36.2581 36.5169 35.9225 36.3659Z" fill="#083B66"/>
<path d="M29.1087 30.6667H27.7507C27.3825 30.6667 27.084 30.9652 27.084 31.3333C27.084 31.7015 27.3825 32 27.7507 32H29.1087C29.4769 32 29.7754 31.7015 29.7754 31.3333C29.7754 30.9652 29.4769 30.6667 29.1087 30.6667Z" fill="#083B66"/>
<path d="M16.2181 38.6667H14.86C14.4919 38.6667 14.1934 38.9652 14.1934 39.3333C14.1934 39.7015 14.4919 40 14.86 40H16.2181C16.5863 40 16.8848 39.7015 16.8848 39.3333C16.8848 38.9652 16.5863 38.6667 16.2181 38.6667Z" fill="#083B66"/>
<path d="M35.8621 32.7132C35.6541 32.4089 35.2387 32.3307 34.934 32.5387C34.6296 32.7467 34.5515 33.1621 34.7595 33.4668C34.9724 33.7787 35.1303 34.1247 35.226 34.4899C35.2781 34.7285 35.4565 34.9196 35.6912 34.988C35.9255 35.0563 36.1785 34.9909 36.3507 34.8174C36.5225 34.6442 36.586 34.3906 36.516 34.1566C36.3826 33.6416 36.1615 33.1533 35.8621 32.7132Z" fill="#083B66"/>
<path d="M21.3014 30.4274C20.9846 30.2695 20.7076 30.043 20.4898 29.764C20.2639 29.473 19.845 29.4206 19.5543 29.6465C19.2633 29.8721 19.2108 30.291 19.4364 30.582C19.7779 31.0202 20.2135 31.376 20.7112 31.6227C21.0396 31.7761 21.4306 31.6387 21.5911 31.3135C21.7515 30.9886 21.6226 30.5947 21.3014 30.4274Z" fill="#083B66"/>
<path d="M20.2933 38.6667H18.9333C18.5651 38.6667 18.2666 38.9652 18.2666 39.3333C18.2666 39.7015 18.5651 40 18.9333 40H20.2933C20.6615 40 20.96 39.7015 20.96 39.3333C20.96 38.9652 20.6615 38.6667 20.2933 38.6667Z" fill="#083B66"/>
<path d="M28.4442 38.6667H27.0861C26.7179 38.6667 26.4194 38.9652 26.4194 39.3333C26.4194 39.7015 26.7179 40 27.0861 40H28.4442C28.8123 40 29.1108 39.7015 29.1108 39.3333C29.1108 38.9652 28.8123 38.6667 28.4442 38.6667Z" fill="#083B66"/>
<path d="M23.7889 26C24.1571 26 24.4556 25.7015 24.4556 25.3333C24.4556 24.9652 24.1571 24.6667 23.7889 24.6667H22.4308C22.0627 24.6667 21.7642 24.9652 21.7642 25.3333C21.7642 25.7015 22.0627 26 22.4308 26H23.7889Z" fill="#083B66"/>
<path d="M27.8664 26C28.2345 26 28.533 25.7015 28.533 25.3333C28.533 24.9652 28.2345 24.6667 27.8664 24.6667H26.505C26.1369 24.6667 25.8384 24.9652 25.8384 25.3333C25.8384 25.7015 26.1369 26 26.505 26H27.8664Z" fill="#083B66"/>
<path d="M25.0339 30.6667H23.6755C23.3073 30.6667 23.0088 30.9652 23.0088 31.3333C23.0088 31.7015 23.3073 32 23.6755 32H25.0339C25.4023 32 25.7005 31.7015 25.7005 31.3333C25.7005 30.9652 25.4023 30.6667 25.0339 30.6667Z" fill="#083B66"/>
<path d="M24.3696 38.6667H23.0109C22.6427 38.6667 22.3442 38.9652 22.3442 39.3333C22.3442 39.7015 22.6427 40 23.0109 40H24.3696C24.7378 40 25.0363 39.7015 25.0363 39.3333C25.0363 38.9652 24.7378 38.6667 24.3696 38.6667Z" fill="#083B66"/>
<path d="M7.99984 38.6667H7.33317C6.96501 38.6667 6.6665 38.9652 6.6665 39.3333C6.6665 39.7015 6.96501 40 7.33317 40H7.99984C8.368 40 8.6665 39.7015 8.6665 39.3333C8.6665 38.9652 8.368 38.6667 7.99984 38.6667Z" fill="#083B66"/>
</g>
<defs>
<clipPath id="clip0">
<rect width="40" height="40" fill="white"/>
</clipPath>
</defs>
</svg>
