<svg width="170" height="167" viewBox="0 0 170 167" fill="none" xmlns="http://www.w3.org/2000/svg">
<path d="M85 0.668884C38.0444 0.668884 0 37.6999 0 83.4048C0 129.11 38.0444 166.141 85 166.141C131.956 166.141 170 129.11 170 83.4048C170 37.6999 131.956 0.668884 85 0.668884ZM85 32.6957C101.657 32.6957 115.161 45.84 115.161 62.0536C115.161 78.2671 101.657 91.4115 85 91.4115C68.3427 91.4115 54.8387 78.2671 54.8387 62.0536C54.8387 45.84 68.3427 32.6957 85 32.6957ZM85 147.458C64.8811 147.458 46.8528 138.584 34.7883 124.706C41.2319 112.896 53.8448 104.756 68.5484 104.756C69.371 104.756 70.1936 104.889 70.9819 105.123C75.4375 106.524 80.0988 107.425 85 107.425C89.9012 107.425 94.5968 106.524 99.0181 105.123C99.8064 104.889 100.629 104.756 101.452 104.756C116.155 104.756 128.768 112.896 135.212 124.706C123.147 138.584 105.119 147.458 85 147.458Z" fill="#083B66"/>
</svg>
